HIERARCHY
ROOT Hips
{
	OFFSET 0.00 0.00 0.00
	CHANNELS 6 Xposition Yposition Zposition Xrotation Yrotation Zrotation
	JOINT RightUpLeg
	{
		OFFSET -3.76699 0.00000 0.00000
		CHANNELS 3 Xrotation Yrotation Zrotation
		JOINT RightLeg
		{
			OFFSET 0.00000 -18.01768 0.00000
			CHANNELS 3 Xrotation Yrotation Zrotation
			JOINT RightFoot
			{
				OFFSET 0.00000 -16.88108 0.00000
				CHANNELS 3 Xrotation Yrotation Zrotation
				JOINT RightToeBase
				{
					OFFSET 0.00000 -1.49359 5.57418
					CHANNELS 3 Xrotation Yrotation Zrotation
					End Site
					{
						OFFSET 0.00000 0.00000 2.95275
					}
				}
			}
		}
	}
	JOINT LeftUpLeg
	{
		OFFSET 3.76699 0.00000 0.00000
		CHANNELS 3 Xrotation Yrotation Zrotation
		JOINT LeftLeg
		{
			OFFSET 0.00000 -18.01768 0.00000
			CHANNELS 3 Xrotation Yrotation Zrotation
			JOINT LeftFoot
			{
				OFFSET 0.00000 -16.88108 0.00000
				CHANNELS 3 Xrotation Yrotation Zrotation
				JOINT LeftToeBase
				{
					OFFSET 0.00000 -1.49359 5.57418
					CHANNELS 3 Xrotation Yrotation Zrotation
					End Site
					{
						OFFSET 0.00000 0.00000 2.95275
					}
				}
			}
		}
	}
	JOINT Spine
	{
		OFFSET 0.00000 7.77970 0.00000
		CHANNELS 3 Xrotation Yrotation Zrotation
		JOINT RightShoulder
		{
			OFFSET 0.00000 10.94176 0.00000
			CHANNELS 3 Xrotation Yrotation Zrotation
			JOINT RightArm
			{
				OFFSET -7.70894 0.00000 0.00000
				CHANNELS 3 Xrotation Yrotation Zrotation
				JOINT RightForeArm
				{
					OFFSET -11.52135 0.00000 0.00000
					CHANNELS 3 Yrotation Zrotation Xrotation
					JOINT RightHand
					{
						OFFSET -10.17590 0.00000 0.00000
						CHANNELS 3 Xrotation Yrotation Zrotation
						End Site
						{
							OFFSET -3.93700 0.00000 0.00000
						}
						JOINT RightHandThumb1
						{
							OFFSET 0.00000 0.00000 0.00000
							CHANNELS 3 Xrotation Zrotation Yrotation
							End Site
							{
								OFFSET 0.00000 0.00000 3.93700
							}
						}
					}
				}
			}
		}
		JOINT LeftShoulder
		{
			OFFSET 0.00000 10.94176 0.00000
			CHANNELS 3 Xrotation Yrotation Zrotation
			JOINT LeftArm
			{
				OFFSET 7.70894 0.00000 0.00000
				CHANNELS 3 Xrotation Yrotation Zrotation
				JOINT LeftForeArm
				{
					OFFSET 11.52135 0.00000 0.00000
					CHANNELS 3 Yrotation Zrotation Xrotation
					JOINT LeftHand
					{
						OFFSET 10.17590 0.00000 0.00000
						CHANNELS 3 Xrotation Yrotation Zrotation
						End Site
						{
							OFFSET 3.93700 0.00000 0.00000
						}
						JOINT LeftHandThumb1
						{
							OFFSET 0.00000 0.00000 0.00000
							CHANNELS 3 Xrotation Zrotation Yrotation
							End Site
							{
								OFFSET 0.00000 0.00000 3.93700
							}
						}
					}
				}
			}
		}
		JOINT Head
		{
			OFFSET 0.00000 16.64604 0.00000
			CHANNELS 3 Xrotation Yrotation Zrotation
			End Site
			{
				OFFSET 0.00000 4.52755 0.00000
			}
		}
	}
}
MOTION
Frames:	17
Frame Time: 0.008333
-2.9508 37.0884 1.2956 -2.0962 2.7952 -1.5882 8.7822 -1.5998 -1.0252 -2.2104 0.0000 -0.0000 -6.7404 -19.0333 11.0544 11.0924 -0.0000 -0.0000 8.0127 6.0791 3.5410 -4.6172 0.0000 -0.0000 -7.8061 21.7101 -8.8927 15.5664 -0.0000 -0.0000 3.9090 3.4781 1.2823 24.2235 -27.3928 -16.0654 -63.2942 2.5367 32.2908 6.5027 0.0000 44.2236 4.3007 -15.6211 15.6041 33.1476 -0.0000 -26.2537 14.5804 6.7328 25.5147 -30.3026 -0.8952 -30.8835 -23.4869 0.0000 -4.4686 0.3089 2.0662 -8.5060 32.8623 0.0000 24.3270 -0.7990 -11.6097 -2.6509
-2.9517 37.0887 1.2998 -2.0941 2.7976 -1.5870 8.7940 -1.6109 -1.0220 -2.2282 0.0000 -0.0000 -6.7331 -19.0328 11.0554 11.0754 -0.0000 -0.0000 8.0244 6.0917 3.5408 -4.6338 0.0000 -0.0000 -7.7926 21.6960 -8.8858 15.5552 -0.0000 -0.0000 3.8569 3.5408 1.2516 24.2082 -27.3584 -16.0495 -63.2947 2.4952 32.2678 6.6248 0.0000 44.1759 4.2991 -15.5128 15.6994 33.1476 -0.0000 -26.2537 14.6661 6.6920 25.4583 -30.0485 -1.0309 -31.0447 -24.0146 0.0000 -4.4416 0.3073 2.0375 -8.5775 32.8623 0.0000 24.3270 -0.7513 -11.7085 -2.6458
-2.9493 37.0893 1.3001 -2.0728 2.8127 -1.5877 8.7745 -1.6358 -1.0233 -2.2264 0.0000 -0.0000 -6.7234 -19.0261 11.0533 11.0569 -0.0000 -0.0000 8.0007 6.0927 3.5390 -4.6309 0.0000 -0.0000 -7.7975 21.6854 -8.9208 15.6007 -0.0000 -0.0000 3.7931 3.5826 1.2537 24.1985 -27.3649 -16.0617 -63.3380 2.4446 32.2890 6.7940 -0.0000 44.0871 4.3232 -15.4430 15.8495 33.1476 -0.0000 -26.2537 14.7697 6.6522 25.3314 -29.7756 -1.2224 -31.1658 -24.5258 0.0000 -4.2872 0.3036 2.0045 -8.6134 32.8623 0.0000 24.3270 -0.6869 -11.6071 -2.5901
-2.9497 37.0897 1.3018 -2.0617 2.8334 -1.5915 8.7665 -1.6593 -1.0172 -2.2205 0.0000 -0.0000 -6.7240 -19.0198 11.0699 11.0465 -0.0000 -0.0000 7.9898 6.0932 3.5456 -4.6341 0.0000 -0.0000 -7.7842 21.6592 -8.9195 15.5648 -0.0000 -0.0000 3.7411 3.5986 1.2521 24.1384 -27.3260 -16.0951 -63.3392 2.3817 32.2955 6.9638 -0.0000 44.0575 4.3285 -15.4491 15.8622 33.1476 -0.0000 -26.2537 14.8938 6.6427 25.2151 -29.5103 -1.4181 -31.3094 -25.0448 0.0000 -4.1381 0.2916 1.9164 -8.6543 32.8623 0.0000 24.3270 -0.6564 -11.6014 -2.5912
-2.9482 37.0890 1.3033 -2.0464 2.8491 -1.5798 8.7549 -1.6914 -1.0283 -2.2193 0.0000 -0.0000 -6.7438 -19.0152 11.0615 11.0555 -0.0000 -0.0000 7.9783 6.0920 3.5331 -4.6386 0.0000 -0.0000 -7.7796 21.6444 -8.9097 15.5666 -0.0000 -0.0000 3.6831 3.6109 1.2125 24.1376 -27.2950 -16.0824 -63.4593 2.2907 32.3136 7.1517 -0.0000 44.0791 4.3165 -15.3263 15.9378 33.1476 -0.0000 -26.2537 15.0517 6.6835 25.1141 -29.3198 -1.6385 -31.4947 -25.5794 -0.0000 -4.0725 0.3031 2.0121 -8.5689 32.8623 0.0000 24.3270 -0.6335 -11.7699 -2.6315
-2.9466 37.0895 1.3038 -2.0374 2.8673 -1.5773 8.7509 -1.7049 -1.0308 -2.2223 0.0000 -0.0000 -6.7356 -19.0181 11.0760 11.0694 -0.0000 -0.0000 7.9680 6.0826 3.5296 -4.6387 0.0000 -0.0000 -7.7804 21.6319 -8.9364 15.5536 -0.0000 -0.0000 3.6355 3.6301 1.2008 24.0600 -27.2331 -16.1119 -63.3960 2.2643 32.3025 7.3842 0.0000 43.9173 4.3544 -15.3090 16.0876 33.1476 -0.0000 -26.2537 15.2494 6.6864 24.9925 -29.1487 -1.7916 -31.6641 -26.1280 0.0000 -3.8234 0.2765 1.8386 -8.5548 32.8623 0.0000 24.3270 -0.5895 -11.7883 -2.6194
-2.9441 37.0893 1.3054 -2.0289 2.8850 -1.5716 8.7453 -1.7258 -1.0380 -2.2175 0.0000 -0.0000 -6.7458 -19.0167 11.0610 11.0527 -0.0000 -0.0000 7.9624 6.0894 3.5189 -4.6458 0.0000 -0.0000 -7.7739 21.6102 -8.8987 15.5743 -0.0000 -0.0000 3.5876 3.6250 1.1950 24.0437 -27.2320 -16.1336 -63.6139 2.1513 32.3645 7.5574 0.0000 43.9934 4.2976 -15.1915 16.0018 33.1476 -0.0000 -26.2537 15.2992 6.7154 24.8287 -28.8181 -2.1062 -31.8376 -26.6284 0.0000 -3.6423 0.2694 1.8008 -8.5112 32.8623 0.0000 24.3270 -0.5588 -11.7954 -2.6322
-2.9415 37.0895 1.3062 -2.0184 2.9000 -1.5623 8.7367 -1.7419 -1.0498 -2.2137 0.0000 -0.0000 -6.7471 -19.0191 11.0749 11.0552 -0.0000 -0.0000 7.9511 6.0868 3.5090 -4.6414 0.0000 -0.0000 -7.7634 21.5878 -8.9364 15.5498 -0.0000 -0.0000 3.5373 3.6366 1.1811 23.9883 -27.1892 -16.1577 -63.6603 2.0671 32.3708 7.8358 0.0000 43.9763 4.3082 -15.2005 16.0305 33.1476 -0.0000 -26.2537 15.4409 6.7470 24.6763 -28.5503 -2.4046 -32.0172 -27.1328 -0.0000 -3.3993 0.2358 1.5741 -8.5209 32.8623 0.0000 24.3270 -0.5307 -11.8105 -2.6136
-2.9391 37.0896 1.3076 -2.0118 2.9256 -1.5565 8.7385 -1.7533 -1.0555 -2.2166 0.0000 -0.0000 -6.7535 -19.0336 11.0771 11.0577 -0.0000 -0.0000 7.9460 6.0576 3.5034 -4.6444 0.0000 -0.0000 -7.7667 21.5955 -8.9340 15.5902 -0.0000 -0.0000 3.4916 3.6351 1.1640 23.9803 -27.1638 -16.1405 -63.7535 2.0083 32.3806 8.1077 0.0000 43.8037 4.3168 -15.2619 16.0011 33.1476 -0.0000 -26.2537 15.5290 6.7773 24.5503 -28.1624 -2.7411 -32.2407 -27.6983 0.0000 -3.2333 0.2292 1.5566 -8.3771 32.8623 0.0000 24.3270 -0.4900 -11.8295 -2.5945
-2.9355 37.0898 1.3070 -1.9837 2.9402 -1.5479 8.7103 -1.7503 -1.0692 -2.2147 0.0000 -0.0000 -6.7565 -19.0499 11.0605 11.0385 -0.0000 -0.0000 7.9104 6.0538 3.4892 -4.6305 0.0000 -0.0000 -7.7705 21.5869 -8.9277 15.5689 -0.0000 -0.0000 3.4191 3.6529 1.1606 23.9483 -27.1459 -16.1534 -63.8553 1.9098 32.3910 8.4295 0.0000 43.7200 4.2729 -15.1659 15.9387 33.1476 -0.0000 -26.2537 15.6456 6.7761 24.4001 -27.8000 -3.0494 -32.4565 -28.2410 -0.0000 -3.0543 0.2017 1.3913 -8.2493 32.8623 0.0000 24.3270 -0.4410 -11.7596 -2.5908
-2.9325 37.0898 1.3098 -1.9922 2.9635 -1.5380 8.7363 -1.7306 -1.0798 -2.2317 0.0000 -0.0000 -6.7560 -19.1003 11.0739 11.0614 -0.0000 -0.0000 7.9249 6.0396 3.4770 -4.6371 0.0000 -0.0000 -7.7703 21.5711 -8.9241 15.5766 -0.0000 -0.0000 3.3893 3.6414 1.1496 23.9220 -27.1135 -16.1651 -63.9853 1.8003 32.4057 8.7653 0.0000 43.6046 4.1709 -15.1491 15.5920 33.1476 -0.0000 -26.2537 15.7633 6.7873 24.2805 -27.3799 -3.3518 -32.7037 -28.8225 0.0000 -2.9914 0.1714 1.1962 -8.1552 32.8623 0.0000 24.3270 -0.4177 -11.7305 -2.5884
-2.9293 37.0899 1.3107 -1.9874 2.9812 -1.5229 8.7372 -1.7316 -1.0988 -2.2338 0.0000 -0.0000 -6.7641 -19.0965 11.0378 11.0518 -0.0000 -0.0000 7.9235 6.0131 3.4588 -4.6429 0.0000 -0.0000 -7.7529 21.5827 -8.9194 15.5557 -0.0000 -0.0000 3.3489 3.6384 1.1281 23.9025 -27.0749 -16.1670 -64.1147 1.6751 32.4121 9.1640 -0.0000 43.4382 4.1605 -15.1436 15.5601 33.1476 -0.0000 -26.2537 15.9256 6.8142 24.1438 -27.0921 -3.6044 -32.9745 -29.4439 -0.0000 -2.8162 0.1691 1.1901 -8.0877 32.8623 0.0000 24.3270 -0.4011 -11.7591 -2.5871
-2.9264 37.0904 1.3127 -1.9862 3.0117 -1.5193 8.7476 -1.7480 -1.1010 -2.2412 0.0000 -0.0000 -6.7547 -19.1230 11.0582 11.0367 -0.0000 -0.0000 7.9190 5.9939 3.4572 -4.6297 0.0000 -0.0000 -7.7631 21.5627 -8.9415 15.5969 -0.0000 -0.0000 3.3112 3.6121 1.1220 23.8461 -27.0057 -16.1921 -64.2572 1.4929 32.4038 9.6145 -0.0000 43.2345 4.0531 -15.0250 15.2874 33.1476 -0.0000 -26.2537 16.1092 6.8601 23.9699 -26.7654 -3.9177 -33.1970 -30.0616 -0.0000 -2.6993 0.1532 1.0663 -8.1783 32.8623 0.0000 24.3270 -0.3870 -11.7325 -2.5524
-2.9228 37.0908 1.3126 -1.9713 3.0243 -1.5037 8.7318 -1.7577 -1.1210 -2.2348 0.0000 -0.0000 -6.7671 -19.1325 11.0629 11.0728 -0.0000 -0.0000 7.8984 5.9988 3.4368 -4.6227 0.0000 -0.0000 -7.7546 21.5515 -8.9679 15.6070 -0.0000 -0.0000 3.2632 3.6289 1.0838 23.8518 -26.9916 -16.1561 -64.4334 1.2990 32.4157 10.2017 0.0000 43.0478 4.1177 -15.0761 15.4712 33.1476 -0.0000 -26.2537 16.3335 6.9459 23.8434 -26.4967 -4.2874 -33.4987 -30.6627 0.0000 -2.7673 0.1341 0.9530 -8.0120 32.8623 0.0000 24.3270 -0.4085 -11.8901 -2.5782
-2.9196 37.0913 1.3139 -1.9704 3.0416 -1.4956 8.7339 -1.7585 -1.1318 -2.2330 0.0000 -0.0000 -6.7648 -19.1496 11.0608 11.0857 -0.0000 -0.0000 7.9001 5.9732 3.4261 -4.6235 0.0000 -0.0000 -7.7465 21.5540 -8.9642 15.5704 -0.0000 -0.0000 3.2298 3.6269 1.0728 23.7815 -26.9200 -16.1836 -64.5354 1.0495 32.3846 10.8382 0.0000 42.8536 3.9906 -15.0108 15.0750 33.1476 -0.0000 -26.2537 16.5510 7.0358 23.6590 -26.1893 -4.7096 -33.7582 -31.2431 0.0000 -2.9414 0.1162 0.8333 -7.9402 32.8623 0.0000 24.3270 -0.4066 -11.9251 -2.5631
-2.9160 37.0918 1.3159 -1.9790 3.0630 -1.4893 8.7511 -1.7755 -1.1396 -2.2379 0.0000 -0.0000 -6.7699 -19.1648 11.0815 11.0947 -0.0000 -0.0000 7.9026 5.9479 3.4189 -4.6032 0.0000 -0.0000 -7.7616 21.5513 -8.9572 15.5842 -0.0000 -0.0000 3.2081 3.6223 1.0690 23.7361 -26.8704 -16.1863 -64.7120 0.8132 32.3522 11.4946 0.0000 42.5717 3.9071 -14.8486 14.9230 33.1476 -0.0000 -26.2537 16.7240 7.1003 23.4619 -25.7995 -5.1713 -34.0045 -31.8271 0.0000 -3.2483 0.1056 0.7591 -7.9178 32.8623 0.0000 24.3270 -0.4059 -11.9309 -2.5613
-2.9139 37.0922 1.3175 -1.9814 3.0851 -1.4886 8.7572 -1.7855 -1.1399 -2.2320 0.0000 -0.0000 -6.7673 -19.1700 11.0706 11.1025 -0.0000 -0.0000 7.9005 5.9542 3.4143 -4.5990 0.0000 -0.0000 -7.7636 21.5321 -8.9071 15.5571 -0.0000 -0.0000 3.1747 3.6162 1.0690 23.7298 -26.8689 -16.1794 -65.0261 0.5018 32.3856 12.2636 -0.0000 42.2640 3.8478 -14.6351 14.9062 33.1476 -0.0000 -26.2537 17.0029 7.2226 23.2820 -25.5402 -5.6315 -34.3180 -32.4207 0.0000 -3.4693 0.0974 0.7114 -7.7967 32.8623 0.0000 24.3270 -0.4090 -11.9264 -2.5527
